<svg xmlns="http://www.w3.org/2000/svg" xmlns:xlink="http://www.w3.org/1999/xlink" width="119.627" height="9.33" viewBox="0 0 119.627 9.33"><defs><style>.a{fill:url(#a);}</style><linearGradient id="a" x1="0.053" y1="0.5" x2="0.833" y2="1" gradientUnits="objectBoundingBox"><stop offset="0" stop-color="#41963c"/><stop offset="1" stop-color="#bffa8a"/></linearGradient></defs><path class="a" d="M40.259,9.33A83.019,83.019,0,0,1,22.393,7.464h.049A82.5,82.5,0,0,0,4.6,5.6c-1.551,0-3.1.039-4.6.116V1.867H23.546A72.894,72.894,0,0,0,40.259,3.731,72.878,72.878,0,0,0,56.971,1.867H57.6A109.821,109.821,0,0,1,78.216,0,109.89,109.89,0,0,1,98.834,1.867h.884A65.9,65.9,0,0,0,115.6,3.733c1.333,0,2.688-.037,4.025-.111V5.6h-8.661a74.608,74.608,0,0,0,8.661,1.394v.467h-4.542l4.546,0V9.211c-1.466.079-3.014.118-4.6.118A82.812,82.812,0,0,1,97.16,7.463H97.2A98.756,98.756,0,0,0,77.645,5.6,99.039,99.039,0,0,0,58.068,7.464h.04A82.882,82.882,0,0,1,40.259,9.33ZM22.451,1.866H0V.117C1.536.039,3.083,0,4.6,0A83.139,83.139,0,0,1,22.452,1.861h0Z"/></svg>