<svg xmlns="http://www.w3.org/2000/svg" xmlns:xlink="http://www.w3.org/1999/xlink" width="120" height="8" viewBox="0 0 120 8"><defs><style>.a{fill:url(#a);}</style><linearGradient id="a" x1="0.053" y1="0.5" x2="0.833" y2="1" gradientUnits="objectBoundingBox"><stop offset="0" stop-color="#41963c"/><stop offset="1" stop-color="#bffa8a"/></linearGradient></defs><g transform="translate(120 8) rotate(180)"><path class="a" d="M40.385,8A96.919,96.919,0,0,1,22.463,6.4h.049A96.31,96.31,0,0,0,4.618,4.8c-1.556,0-3.11.033-4.618.1V1.6H23.62A85.038,85.038,0,0,0,40.385,3.2,85.019,85.019,0,0,0,57.148,1.6h.634A128.372,128.372,0,0,1,78.461,0,128.454,128.454,0,0,1,99.143,1.6h.887a76.831,76.831,0,0,0,15.93,1.6c1.338,0,2.7-.032,4.037-.095V4.8h-8.688A86.641,86.641,0,0,0,120,6v.4H115.44l4.56,0V7.9c-1.471.067-3.023.1-4.615.1A96.677,96.677,0,0,1,97.463,6.4h.043A115.389,115.389,0,0,0,77.887,4.8,115.721,115.721,0,0,0,58.249,6.4h.04A96.759,96.759,0,0,1,40.385,8ZM22.521,1.6H0V.1C1.54.033,3.093,0,4.616,0A97.061,97.061,0,0,1,22.522,1.6h0Z"/></g></svg>