<svg xmlns="http://www.w3.org/2000/svg" width="119.626" height="9.33" viewBox="0 0 119.626 9.33"><defs><style>.a{fill:#1270f3;}.b,.c{stroke:none;}.c{fill:#707070;}</style></defs><g class="a"><path class="b" d="M 119.5385894775391 9.280119895935059 L 6.823428630828857 9.280119895935059 C 5.433751583099365 9.280119895935059 4.067613124847412 8.397920608520508 2.872705459594727 6.728904724121094 C 1.743244767189026 5.151330471038818 0.7923940420150757 2.918111801147461 0.1156889572739601 0.2571195363998413 C 2.83930230140686 4.179323673248291 6.06367015838623 6.251556396484375 9.453736305236816 6.254227638244629 L 14.71324443817139 6.255581855773926 L 117.7399520874023 6.255581855773926 L 119.5385894775391 9.280119895935059 Z"/><path class="c" d="M 119.4506759643555 9.230119705200195 L 117.7115020751953 6.305581569671631 L 14.71322822570801 6.305581569671631 L 9.453705787658691 6.304227828979492 C 6.112110614776611 6.301592826843262 2.932847738265991 4.301363468170166 0.2331550419330597 0.511074423789978 C 0.9032527208328247 3.048632383346558 1.825374126434326 5.180167198181152 2.913351774215698 6.6997971534729 C 4.098490238189697 8.355151176452637 5.450567245483398 9.230119705200195 6.823428630828857 9.230119705200195 L 119.4506759643555 9.230119705200195 M 119.6264572143555 9.330120086669922 L 119.6239852905273 9.330120086669922 L 119.6264572143555 9.330120086669922 Z M 119.6264572143555 9.330120086669922 L 6.823428630828857 9.330120086669922 C 5.417028427124023 9.330120086669922 4.036751747131348 8.440704345703125 2.832043886184692 6.758012294769287 C 1.661228656768799 5.122673988342285 0.6818286180496216 2.785797119140625 -2.162053078791359e-06 -2.925638000306208e-06 C 2.746274709701538 4.05565881729126 6.014490127563477 6.201519966125488 9.453782081604004 6.204227924346924 L 14.71325969696045 6.205581665039062 L 117.7683792114258 6.205581665039062 L 119.6250762939453 9.327735900878906 L 119.6264572143555 9.330120086669922 Z"/></g></svg>