<svg xmlns="http://www.w3.org/2000/svg" width="119.916" height="9.33" viewBox="0 0 119.916 9.33"><defs><style>.a{fill:#229df9;}.b,.c{stroke:none;}.c{fill:#707070;}</style></defs><g class="a"><path class="b" d="M 119.8662719726562 9.280119895935059 L 6.824052810668945 9.280119895935059 C 5.434022426605225 9.280119895935059 4.067776203155518 8.39793586730957 2.873022079467773 6.728919982910156 C 1.743353009223938 5.151569366455078 0.7923969626426697 2.918351888656616 0.1156990230083466 0.2571498155593872 C 2.839447021484375 4.180038928985596 6.063926696777344 6.252728939056396 9.454052925109863 6.255566120147705 L 14.71419143676758 6.255597114562988 L 119.8662719726562 6.255597114562988 L 119.8662719726562 9.280119895935059 Z"/><path class="c" d="M 119.8162689208984 9.230119705200195 L 119.8162689208984 6.305597305297852 L 14.71419143676758 6.305597305297852 L 9.454022407531738 6.305566310882568 C 6.112368106842041 6.302768230438232 2.932989835739136 4.302072525024414 0.2331662178039551 0.5111196637153625 C 0.9032768607139587 3.048865556716919 1.825503826141357 5.180383682250977 2.913668394088745 6.699812412261963 C 4.098652839660645 8.355151176452637 5.4508376121521 9.230119705200195 6.824052810668945 9.230119705200195 L 119.8162689208984 9.230119705200195 M 119.9162673950195 9.330120086669922 L 6.824052810668945 9.330120086669922 C 5.417191505432129 9.330120086669922 4.036899089813232 8.440689086914062 2.832360744476318 6.758028030395508 C 1.660914540290833 5.122320175170898 0.6816837191581726 2.785427808761597 6.805889370298246e-06 -2.925638000306208e-06 C 2.746437549591064 4.056381702423096 6.014806747436523 6.202689170837402 9.454098701477051 6.20556640625 L 14.71419143676758 6.205596923828125 L 119.9162673950195 6.205596923828125 L 119.9162673950195 9.328612327575684 L 119.9162673950195 9.330120086669922 Z"/></g></svg>