<svg xmlns="http://www.w3.org/2000/svg" width="120.626" height="9.33" viewBox="0 0 120.626 9.33"><defs><style>.a{fill:#0828dd;}.b,.c{stroke:none;}.c{fill:#707070;}</style></defs><g class="a" transform="translate(120.626 9.33) rotate(180)"><path class="b" d="M 0.1158182471990585 9.074684143066406 C 0.7981951832771301 6.413068771362305 1.757153034210205 4.179238796234131 2.896266937255859 2.601366281509399 C 4.101236343383789 0.9322432279586792 5.478959083557129 0.04999707266688347 6.880466938018799 0.04999707266688347 L 120.5381851196289 0.04999707266688347 L 118.7245407104492 3.074535608291626 L 14.8362512588501 3.074535608291626 L 9.532790184020996 3.075889348983765 C 6.114149570465088 3.078561305999756 2.862341165542603 5.15163516998291 0.1158182471990585 9.074684143066406 Z"/><path class="c" d="M 6.880470275878906 0.09999752044677734 C 5.495681762695312 0.09999752044677734 4.131988525390625 0.9750738143920898 2.936790466308594 2.630643367767334 C 1.8392333984375 4.150967597961426 0.9091720581054688 6.283346176147461 0.2334213256835938 8.822354316711426 C 2.956092834472656 5.029913425445557 6.162574768066406 3.028525352478027 9.53277587890625 3.02588939666748 L 14.83625030517578 3.024535655975342 L 118.6962051391602 3.024535655975342 L 120.4499130249023 0.09999752044677734 L 6.880470275878906 0.09999752044677734 M 6.880470275878906 -2.86102294921875e-06 L 120.62646484375 -2.86102294921875e-06 L 120.6250686645508 0.002381324768066406 L 118.7528533935547 3.12453556060791 L 14.83625030517578 3.12453556060791 L 9.532806396484375 3.125889301300049 C 6.06475830078125 3.128597259521484 2.769233703613281 5.274458408355713 7.62939453125e-06 9.330120086669922 C 0.687530517578125 6.544320106506348 1.67510986328125 4.20745849609375 2.855712890625 2.572104930877686 C 4.07049560546875 0.8894128799438477 5.462310791015625 -2.86102294921875e-06 6.880470275878906 -2.86102294921875e-06 Z M 120.6239776611328 -2.86102294921875e-06 L 120.62646484375 -2.86102294921875e-06 L 120.6239776611328 -2.86102294921875e-06 Z"/></g></svg>