<svg xmlns="http://www.w3.org/2000/svg" width="119.627" height="9.33" viewBox="0 0 119.627 9.33"><defs><style>.a{fill:#0828dd;}.b,.c{stroke:none;}.c{fill:#707070;}</style></defs><g class="a" transform="translate(0.001 0.001)"><path class="b" d="M 119.5377883911133 9.279411315917969 L 6.99843168258667 9.279411315917969 C 5.572493076324463 9.279411315917969 4.170693397521973 8.397010803222656 2.944554805755615 6.727611064910889 C 1.785929918289185 5.150020122528076 0.8100593686103821 2.914953947067261 0.1152611523866653 0.2512142062187195 C 2.91008186340332 4.177242279052734 6.218491077423096 6.251938343048096 9.695847511291504 6.254611015319824 L 15.09169292449951 6.254611015319824 L 117.7392730712891 6.254611015319824 L 119.5377883911133 9.279411315917969 Z"/><path class="c" d="M 119.4498825073242 9.229411125183105 L 117.710823059082 6.304610729217529 L 15.09169292449951 6.304610729217529 L 9.69580078125 6.304610729217529 C 6.267085552215576 6.301973342895508 3.004172563552856 4.297881126403809 0.2332037091255188 0.5003911256790161 C 0.9212827086448669 3.042709589004517 1.868055701255798 5.177389144897461 2.984862565994263 6.698010921478271 C 4.201185703277588 8.354072570800781 5.589046955108643 9.229411125183105 6.99843168258667 9.229411125183105 L 119.4498825073242 9.229411125183105 M 119.6256790161133 9.329410552978516 L 119.6256637573242 9.329410552978516 L 119.623893737793 9.329410552978516 L 119.6256637573242 9.329410552978516 L 119.6256790161133 9.329410552978516 Z M 119.6256790161133 9.329410552978516 L 6.99843168258667 9.329410552978516 C 5.555923938751221 9.329410552978516 4.140185356140137 8.439949035644531 2.904262542724609 6.757210731506348 C 1.703677892684937 5.122503280639648 0.6991086602210999 2.785595417022705 -0.0008913640049286187 -0.0008967965841293335 C 2.816831827163696 4.055810928344727 6.169277667999268 6.201903343200684 9.695878028869629 6.204610824584961 L 15.09169292449951 6.204610824584961 L 117.767707824707 6.204610824584961 L 119.6247863769531 9.327902793884277 L 119.6256637573242 9.329410552978516 Z"/></g></svg>