<svg xmlns="http://www.w3.org/2000/svg" width="119.626" height="9.33" viewBox="0 0 119.626 9.33"><defs><style>.a{fill:#229df9;}.b,.c{stroke:none;}.c{fill:#707070;}</style></defs><g class="a" transform="translate(119.626 9.33) rotate(180)"><path class="b" d="M 0.1156895682215691 9.072997093200684 C 0.7923946976661682 6.412018299102783 1.743244767189026 4.178801536560059 2.872705459594727 2.601212501525879 C 4.067613124847412 0.932197093963623 5.433751583099365 0.04999707266688347 6.823428630828857 0.04999707266688347 L 119.5385513305664 0.04999707266688347 L 117.7399520874023 3.074535608291626 L 14.71325969696045 3.074535608291626 L 9.453766822814941 3.075889348983765 C 6.063670635223389 3.078560829162598 2.839302778244019 5.150792598724365 0.1156895682215691 9.072997093200684 Z"/><path class="c" d="M 6.82342529296875 0.09999752044677734 C 5.450569152832031 0.09999752044677734 4.098487854003906 0.9749660491943359 2.913352966308594 2.630320072174072 C 1.825370788574219 4.149964332580566 0.9032516479492188 6.28150463104248 0.233154296875 8.819039344787598 C 2.932853698730469 5.028750896453857 6.112113952636719 3.028524398803711 9.453750610351562 3.02588939666748 L 14.7132568359375 3.024535655975342 L 117.7115020751953 3.024535655975342 L 119.4506530761719 0.09999752044677734 L 6.82342529296875 0.09999752044677734 M 6.82342529296875 -2.86102294921875e-06 L 119.6264572143555 -2.86102294921875e-06 L 119.6250762939453 0.002381324768066406 L 117.7683792114258 3.12453556060791 L 14.7132568359375 3.12453556060791 L 9.453781127929688 3.125889301300049 C 6.014488220214844 3.128597259521484 2.74627685546875 5.274458408355713 0 9.330120086669922 C 0.6818313598632812 6.544320106506348 1.661231994628906 4.20745849609375 2.832046508789062 2.572104930877686 C 4.036750793457031 0.8894128799438477 5.417030334472656 -2.86102294921875e-06 6.82342529296875 -2.86102294921875e-06 Z M 119.6239852905273 -2.86102294921875e-06 L 119.6264572143555 -2.86102294921875e-06 L 119.6239852905273 -2.86102294921875e-06 Z"/></g></svg>