<svg xmlns="http://www.w3.org/2000/svg" xmlns:xlink="http://www.w3.org/1999/xlink" width="41.217" height="43.228" viewBox="0 0 41.217 43.228">
  <defs>
    <linearGradient id="linear-gradient" x1="0.095" y1="0.398" x2="1.167" y2="0.317" gradientUnits="objectBoundingBox">
      <stop offset="0" stop-color="#f05561"/>
      <stop offset="1" stop-color="#f6916a"/>
    </linearGradient>
  </defs>
  <g id="Note_de_musique" data-name="Note de musique" transform="translate(0 0)">
    <path id="Union_2" data-name="Union 2" d="M1.979,42.148a4.328,4.328,0,0,1-1.92-2.81c-.472-2.685,1.953-5.365,5.406-5.977a8.059,8.059,0,0,1,1.413-.125,7.2,7.2,0,0,1,2.851.57l.1.044V7.372h.181L10,7.347A108.16,108.16,0,0,1,40.241.015c.655-.05.882.032.861.191h.017V32.642c.014.061.026.121.037.183a3.943,3.943,0,0,1-.037,1.542v.1H41.1l-.014.054c-.544,2.1-2.688,3.817-5.333,4.286a8.075,8.075,0,0,1-1.415.125,6.825,6.825,0,0,1-3.782-1.078,4.325,4.325,0,0,1-1.921-2.81c-.472-2.685,1.953-5.365,5.406-5.977a8.059,8.059,0,0,1,1.413-.125,7.2,7.2,0,0,1,2.851.57l.1.044V9.646c-14.622.436-24.252,4.394-25.861,5.1V36.942c.014.061.026.121.037.183a3.943,3.943,0,0,1-.037,1.542v.1h-.021l-.014.054c-.545,2.1-2.688,3.817-5.333,4.284a8.1,8.1,0,0,1-1.416.126A6.825,6.825,0,0,1,1.979,42.148ZM12.544,12.5c2.866-.9,14.393-4.352,24.931-5.228a3.663,3.663,0,0,1,.93.005V3.264c-.653.116-1.2.192-1.2.192S17.563,6.147,12.544,9.248v.172c.074.029.058.075,0,.12Z" transform="translate(0 0)" fill="url(#linear-gradient)"/>
  </g>
</svg>
