<svg xmlns="http://www.w3.org/2000/svg" xmlns:xlink="http://www.w3.org/1999/xlink" width="16.847" height="18.157" viewBox="0 0 16.847 18.157"><defs><style>.a{fill:url(#a);}</style><linearGradient id="a" x1="0.095" y1="0.398" x2="1.167" y2="0.317" gradientUnits="objectBoundingBox"><stop offset="0" stop-color="#f05561"/><stop offset="1" stop-color="#f6916a"/></linearGradient></defs><g transform="translate(0)"><path class="a" d="M.809,17.7a1.82,1.82,0,0,1-.785-1.18,2.416,2.416,0,0,1,2.21-2.511,3.208,3.208,0,0,1,.578-.053,2.874,2.874,0,0,1,1.165.24l.041.018V3.1h.074l0-.01A43.265,43.265,0,0,1,16.448.006c.268-.021.361.014.352.08h.007V13.711c.006.025.011.051.015.077a1.7,1.7,0,0,1-.015.648v.04H16.8l-.006.023a2.675,2.675,0,0,1-2.18,1.8,3.214,3.214,0,0,1-.578.053,2.735,2.735,0,0,1-1.546-.453,1.819,1.819,0,0,1-.785-1.18,2.416,2.416,0,0,1,2.21-2.511,3.208,3.208,0,0,1,.578-.053,2.874,2.874,0,0,1,1.165.24l.041.018V4.052A29.168,29.168,0,0,0,5.127,6.194v9.323c.006.025.011.051.015.077a1.7,1.7,0,0,1-.015.648v.041H5.119l-.006.023a2.674,2.674,0,0,1-2.18,1.8,3.225,3.225,0,0,1-.579.053A2.735,2.735,0,0,1,.809,17.7ZM5.127,5.249a51.6,51.6,0,0,1,10.191-2.2,1.457,1.457,0,0,1,.38,0V1.371c-.267.049-.491.081-.491.081S7.179,2.582,5.127,3.884v.072c.03.012.024.031,0,.051Z" transform="translate(0 0)"/></g></svg>