<svg xmlns="http://www.w3.org/2000/svg" width="116.627" height="4" viewBox="0 0 116.627 4"><defs><style>.a{fill:#3d1319;}</style></defs><g transform="translate(0 0)"><path class="a" d="M528.823,256.728c-3.542-1.465.8-2.289,2.569-2.619s17.121,0,17.121,0,5.173.469,18.04.733,26.366,0,26.366,0,13.127-.011,24.29-.733,27.78.281,26.854.733.052,2.267-5.736,2.557-1.126.24-6.99,0-5.157.9-17.257,0c-4.561-.339-9.507-.029-13.258,0-5.729.044-12.07,0-12.07,0s-11.4,1.025-17.53,0c-.205,0-10.536-.024-13.766,0-4.395.03-13.3,0-13.3,0S532.365,258.194,528.823,256.728Z" transform="translate(-527.472 -253.856)"/></g></svg>