<svg xmlns="http://www.w3.org/2000/svg" width="86" height="3.88" viewBox="0 0 86 3.88"><defs><style>.a{fill:#3d1319;}</style></defs><path class="a" d="M528.468,256.642c-2.612-1.421.592-2.22,1.894-2.54s12.625,0,12.625,0,3.815.455,13.3.711,19.442,0,19.442,0,9.68-.01,17.911-.711,20.485.273,19.8.711.039,2.2-4.23,2.48-.83.233-5.154,0-3.8.873-12.725,0a89.05,89.05,0,0,0-9.777,0c-4.225.043-8.9,0-8.9,0s-8.405.994-12.927,0c-.151,0-7.769-.023-10.151,0-3.241.029-9.806,0-9.806,0S531.08,258.064,528.468,256.642Z" transform="translate(-527.472 -253.856)"/></svg>