<svg xmlns="http://www.w3.org/2000/svg" width="116.627" height="9.33" viewBox="0 0 116.627 9.33"><defs><style>.a{fill:#3d1319;}</style></defs><g transform="translate(0 0)"><path class="a" d="M528.823,260.557c-3.542-3.418.8-5.338,2.569-6.109s17.121,0,17.121,0,5.173,1.094,18.04,1.711,26.366,0,26.366,0a194,194,0,0,0,24.29-1.711c11.163-1.686,27.78.656,26.854,1.711s.052,5.289-5.736,5.965-1.126.56-6.99,0-5.157,2.1-17.257,0c-4.561-.791-9.507-.068-13.258,0-5.729.1-12.07,0-12.07,0s-11.4,2.39-17.53,0c-.205,0-10.536-.057-13.766,0-4.395.07-13.3,0-13.3,0S532.365,263.975,528.823,260.557Z" transform="translate(-527.472 -253.856)"/></g></svg>